<svg width="209" height="32" viewBox="0 0 209 32" fill="none" xmlns="http://www.w3.org/2000/svg">
<path d="M16.0624 11.0721C16.0624 11.0721 19.462 15.5322 19.462 17.4659C19.462 19.3684 17.9025 20.9279 16 20.9279C14.0975 20.9279 12.538 19.3684 12.538 17.4659C12.538 15.5322 16.0624 11.0721 16.0624 11.0721Z" fill="#0E68CA"/>
<path d="M16 0C7.17349 0 0 7.17349 0 16C0 24.8265 7.17349 32 16 32C24.8265 32 32 24.8265 32 16C32 7.17349 24.8265 0 16 0ZM21.3957 2.93177C24.8577 4.36647 27.6335 7.1423 29.0682 10.6043L25.8246 11.9454C24.7329 9.32553 22.6745 7.23587 20.0546 6.17544L21.3957 2.93177ZM10.6043 2.93177L11.9454 6.17544C9.32553 7.26706 7.23587 9.32553 6.17544 11.9454L2.93177 10.6043C4.36647 7.11111 7.11111 4.36647 10.6043 2.93177ZM10.6043 29.0682C7.1423 27.6335 4.36647 24.8577 2.93177 21.3957L6.17544 20.0546C7.26706 22.6745 9.32553 24.7641 11.9454 25.8246L10.6043 29.0682ZM7.23587 16C7.23587 11.1657 11.1657 7.23587 16 7.23587C20.8343 7.23587 24.7641 11.1657 24.7641 16C24.7641 20.8343 20.8343 24.7641 16 24.7641C11.1657 24.7641 7.23587 20.8343 7.23587 16ZM21.3957 29.0682L20.0546 25.8246C22.6745 24.7329 24.7641 22.6745 25.8246 20.0546L29.0682 21.3957C27.6335 24.8889 24.8889 27.6335 21.3957 29.0682Z" fill="#0E68CA"/>
<path d="M58.28 7.912V25H53.864V18.088H46.952V25H42.536V7.912H46.952V14.56H53.864V7.912H58.28ZM72.3723 19.336H64.7163C64.7963 20.28 65.0683 20.96 65.5323 21.376C65.9963 21.792 66.6763 22 67.5723 22C68.1803 22 68.7883 21.904 69.3963 21.712C70.0043 21.504 70.5563 21.224 71.0523 20.872L72.1563 23.752C71.5483 24.2 70.8123 24.552 69.9483 24.808C69.0843 25.064 68.2203 25.192 67.3563 25.192C65.9643 25.192 64.7563 24.936 63.7323 24.424C62.7083 23.912 61.9243 23.184 61.3803 22.24C60.8363 21.28 60.5643 20.152 60.5643 18.856C60.5643 17.624 60.8203 16.528 61.3323 15.568C61.8603 14.592 62.5803 13.832 63.4923 13.288C64.4203 12.744 65.4763 12.472 66.6603 12.472C67.8123 12.472 68.8203 12.728 69.6843 13.24C70.5483 13.752 71.2123 14.488 71.6763 15.448C72.1403 16.392 72.3723 17.496 72.3723 18.76V19.336ZM66.7803 15.448C65.7083 15.448 65.0363 16.072 64.7643 17.32H68.6523C68.4923 16.072 67.8683 15.448 66.7803 15.448ZM74.3819 7.336H78.7259V25H74.3819V7.336ZM89.3594 12.472C90.3994 12.472 91.3274 12.744 92.1434 13.288C92.9594 13.832 93.5994 14.592 94.0634 15.568C94.5274 16.544 94.7594 17.664 94.7594 18.928C94.7594 20.176 94.5274 21.28 94.0634 22.24C93.6154 23.184 92.9834 23.912 92.1674 24.424C91.3514 24.936 90.4154 25.192 89.3594 25.192C88.5594 25.192 87.8314 25.04 87.1754 24.736C86.5194 24.416 86.0154 23.976 85.6634 23.416V30.184H81.3194V16.312C81.3194 15 81.2554 13.832 81.1274 12.808H85.2074L85.4474 14.704C85.7514 14.032 86.2554 13.496 86.9594 13.096C87.6634 12.68 88.4634 12.472 89.3594 12.472ZM88.0394 21.952C88.8234 21.952 89.4154 21.696 89.8154 21.184C90.2154 20.672 90.4154 19.92 90.4154 18.928C90.4154 17.92 90.2074 17.144 89.7914 16.6C89.3914 16.04 88.8074 15.76 88.0394 15.76C87.2554 15.76 86.6554 16.024 86.2394 16.552C85.8234 17.08 85.6154 17.856 85.6154 18.88C85.6154 19.872 85.8234 20.632 86.2394 21.16C86.6554 21.688 87.2554 21.952 88.0394 21.952ZM93.8362 26.728C94.3002 26.84 94.6922 26.896 95.0122 26.896C95.5242 26.896 95.9482 26.744 96.2842 26.44C96.6202 26.152 96.7882 25.704 96.7882 25.096V12.808H101.132V25.144C101.132 26.792 100.7 28.08 99.8362 29.008C98.9882 29.936 97.7402 30.4 96.0922 30.4C95.1642 30.4 94.4122 30.288 93.8362 30.064V26.728ZM101.18 6.832V10.744H96.6442V6.832H101.18ZM115.99 12.808V25H111.742V23.368C110.958 24.584 109.798 25.192 108.262 25.192C106.71 25.192 105.55 24.76 104.782 23.896C104.03 23.032 103.654 21.712 103.654 19.936V12.808H107.998V20.056C107.998 21.256 108.518 21.856 109.558 21.856C110.166 21.856 110.654 21.64 111.022 21.208C111.406 20.776 111.598 20.2 111.598 19.48V12.808H115.99ZM118.585 12.808H122.929V25H118.585V12.808ZM123.001 6.832V10.744H118.465V6.832H123.001ZM131.571 25.192C129.507 25.192 127.891 24.632 126.723 23.512C125.555 22.392 124.971 20.864 124.971 18.928C124.971 17.648 125.251 16.52 125.811 15.544C126.387 14.568 127.187 13.816 128.211 13.288C129.235 12.744 130.419 12.472 131.763 12.472C132.659 12.472 133.539 12.608 134.403 12.88C135.267 13.136 135.955 13.488 136.467 13.936L135.363 16.936C134.931 16.584 134.427 16.304 133.851 16.096C133.275 15.888 132.723 15.784 132.195 15.784C131.299 15.784 130.611 16.04 130.131 16.552C129.651 17.064 129.411 17.824 129.411 18.832C129.411 19.856 129.651 20.632 130.131 21.16C130.611 21.672 131.307 21.928 132.219 21.928C132.747 21.928 133.291 21.824 133.851 21.616C134.427 21.408 134.931 21.128 135.363 20.776L136.467 23.728C135.939 24.192 135.235 24.552 134.355 24.808C133.491 25.064 132.563 25.192 131.571 25.192ZM149.13 19.336H141.474C141.554 20.28 141.826 20.96 142.29 21.376C142.754 21.792 143.434 22 144.33 22C144.938 22 145.546 21.904 146.154 21.712C146.762 21.504 147.314 21.224 147.81 20.872L148.914 23.752C148.306 24.2 147.57 24.552 146.706 24.808C145.842 25.064 144.978 25.192 144.114 25.192C142.722 25.192 141.514 24.936 140.49 24.424C139.466 23.912 138.682 23.184 138.138 22.24C137.594 21.28 137.322 20.152 137.322 18.856C137.322 17.624 137.578 16.528 138.09 15.568C138.618 14.592 139.338 13.832 140.25 13.288C141.178 12.744 142.234 12.472 143.418 12.472C144.57 12.472 145.578 12.728 146.442 13.24C147.306 13.752 147.97 14.488 148.434 15.448C148.898 16.392 149.13 17.496 149.13 18.76V19.336ZM143.538 15.448C142.466 15.448 141.794 16.072 141.522 17.32H145.41C145.25 16.072 144.626 15.448 143.538 15.448Z" fill="#0F2440"/>
<path d="M173.293 7.912V25H170.821V17.344H161.245V25H158.797V7.912H161.245V15.304H170.821V7.912H173.293ZM187.369 19H178.729C178.809 21.832 180.097 23.248 182.593 23.248C183.985 23.248 185.257 22.792 186.409 21.88L187.153 23.608C186.609 24.088 185.913 24.472 185.065 24.76C184.233 25.032 183.393 25.168 182.545 25.168C180.609 25.168 179.089 24.616 177.985 23.512C176.881 22.392 176.329 20.864 176.329 18.928C176.329 17.696 176.569 16.6 177.049 15.64C177.545 14.68 178.233 13.936 179.113 13.408C179.993 12.88 180.993 12.616 182.113 12.616C183.745 12.616 185.025 13.144 185.953 14.2C186.897 15.256 187.369 16.72 187.369 18.592V19ZM182.161 14.416C181.249 14.416 180.505 14.688 179.929 15.232C179.353 15.776 178.985 16.552 178.825 17.56H185.233C185.137 16.536 184.825 15.76 184.297 15.232C183.769 14.688 183.057 14.416 182.161 14.416ZM190.151 7.336H192.551V25H190.151V7.336ZM202.512 12.616C203.552 12.616 204.48 12.88 205.296 13.408C206.112 13.936 206.744 14.68 207.192 15.64C207.656 16.6 207.888 17.704 207.888 18.952C207.888 20.2 207.664 21.296 207.216 22.24C206.768 23.168 206.136 23.888 205.32 24.4C204.504 24.912 203.568 25.168 202.512 25.168C201.584 25.168 200.768 24.976 200.064 24.592C199.376 24.192 198.856 23.624 198.504 22.888V30.184H196.104V16.312C196.104 15.048 196.04 13.912 195.912 12.904H198.168L198.408 15.136C198.728 14.336 199.248 13.72 199.968 13.288C200.688 12.84 201.536 12.616 202.512 12.616ZM201.96 23.248C203.048 23.248 203.896 22.872 204.504 22.12C205.112 21.368 205.416 20.312 205.416 18.952C205.416 17.576 205.112 16.504 204.504 15.736C203.896 14.952 203.048 14.56 201.96 14.56C200.84 14.56 199.984 14.936 199.392 15.688C198.8 16.44 198.504 17.512 198.504 18.904C198.504 20.296 198.8 21.368 199.392 22.12C200 22.872 200.856 23.248 201.96 23.248Z" fill="#0E68CA"/>
</svg>
